<svg aria-hidden="true" style="position: absolute; width: 0; height: 0; overflow: hidden;" version="1.1" xmlns="http://www.w3.org/2000/svg" xmlns:xlink="http://www.w3.org/1999/xlink">
    <defs>
        <symbol id="icon-union" viewBox="0 0 125 32">
            <path d="M5.915 18.067l2.427-2.663 5.225 9.134h7.011l-8.292-13.685 8.292-10.853h-7.314l-5.292 7.702-2.056 3.118v-10.82h-5.915v24.538h5.915v-6.472zM31.549 22.904c0.157 0.719 0.337 1.264 0.539 1.635h5.68v-0.287c-0.494-0.888-0.753-2.168-0.775-3.843v-8.073c-0.034-1.977-0.725-3.534-2.073-4.668s-3.185-1.702-5.511-1.702c-2.326 0-4.241 0.551-5.747 1.652-1.494 1.101-2.241 2.534-2.241 4.298h5.68c0-1.326 0.674-1.989 2.022-1.989 1.449 0 2.174 0.837 2.174 2.511v0.961h-1.753c-2.786 0-4.91 0.506-6.371 1.517s-2.191 2.506-2.191 4.483c0 1.573 0.601 2.882 1.803 3.927 1.202 1.034 2.663 1.55 4.382 1.55 1.876 0 3.337-0.657 4.382-1.972zM30.285 20.376c-0.461 0.303-1.045 0.455-1.753 0.455-0.539 0-0.983-0.157-1.331-0.472-0.348-0.326-0.523-0.747-0.523-1.264 0-1.775 0.989-2.663 2.966-2.663h1.652v2.916c-0.202 0.382-0.539 0.725-1.011 1.028zM57.082 15.556c0 2.831-0.64 5.095-1.921 6.792-1.27 1.685-2.989 2.528-5.157 2.528-1.674 0-3.050-0.612-4.129-1.837v8.511h-5.68v-25.246h5.309l0.169 1.685c1.090-1.348 2.522-2.022 4.298-2.022 2.247 0 3.994 0.831 5.241 2.494 1.247 1.652 1.871 3.927 1.871 6.826v0.27zM51.402 15.202c0-3.236-0.944-4.854-2.831-4.854-1.348 0-2.247 0.483-2.697 1.449v7.179c0.494 1.011 1.404 1.517 2.73 1.517 1.809 0 2.741-1.562 2.798-4.685v-0.607zM65.593 24.875c2.045 0 3.668-0.77 4.871-2.309l0.168 1.972h5.326v-18.235h-5.713v12.792c-0.55 0.933-1.477 1.399-2.781 1.399-1.517 0-2.275-0.781-2.275-2.343v-11.848h-5.68v11.814c0 2.18 0.511 3.854 1.534 5.022 1.034 1.157 2.55 1.736 4.55 1.736zM88.631 19.415c0-0.483-0.253-0.871-0.758-1.163s-1.467-0.596-2.882-0.91c-1.415-0.315-2.584-0.725-3.506-1.23-0.921-0.517-1.623-1.14-2.107-1.871s-0.724-1.567-0.724-2.511c0-1.674 0.691-3.050 2.073-4.129 1.16-0.915 2.622-1.446 4.384-1.593v-4.142h2.707v4.196c1.648 0.2 3.026 0.713 4.133 1.539 1.46 1.090 2.191 2.522 2.191 4.298h-5.696c0-1.461-0.77-2.191-2.309-2.191-0.595 0-1.096 0.168-1.5 0.506-0.404 0.326-0.607 0.736-0.607 1.23 0 0.506 0.247 0.916 0.741 1.23s1.281 0.573 2.36 0.775c1.089 0.202 2.045 0.444 2.865 0.725 2.741 0.944 4.112 2.635 4.112 5.073 0 1.663-0.742 3.017-2.225 4.062-1.107 0.786-2.462 1.276-4.065 1.471v4.158h-2.707v-4.106c-1.146-0.099-2.192-0.365-3.137-0.799-1.224-0.562-2.179-1.326-2.865-2.292s-1.028-1.983-1.028-3.050h5.309c0.022 0.843 0.303 1.461 0.842 1.854 0.539 0.382 1.23 0.573 2.073 0.573 0.775 0 1.354-0.157 1.736-0.472 0.394-0.315 0.59-0.725 0.59-1.23zM103.395 6.303v-4.534h-5.68v4.534h-2.326v3.944h2.326v9.050c0 1.876 0.466 3.275 1.398 4.196s2.376 1.382 4.332 1.382c1.112 0 2.179-0.163 3.202-0.489v-4.062c-0.382 0.067-0.854 0.101-1.415 0.101-0.731 0-1.219-0.135-1.467-0.404s-0.37-0.747-0.37-1.433v-8.342h3v-3.944h-3zM118.916 24.538c-0.202-0.371-0.382-0.916-0.539-1.635-1.045 1.315-2.506 1.972-4.382 1.972-1.719 0-3.18-0.517-4.382-1.55-1.202-1.045-1.803-2.354-1.803-3.927 0-1.977 0.731-3.472 2.191-4.483s3.584-1.517 6.37-1.517h1.753v-0.961c0-1.674-0.725-2.511-2.174-2.511-1.349 0-2.023 0.663-2.023 1.989h-5.68c0-1.764 0.748-3.197 2.242-4.298 1.505-1.101 3.421-1.652 5.746-1.652s4.163 0.567 5.511 1.702c1.348 1.135 2.039 2.691 2.073 4.668v8.073c0.022 1.674 0.281 2.955 0.775 3.843v0.287h-5.68zM115.36 20.831c0.708 0 1.292-0.152 1.753-0.455 0.472-0.303 0.809-0.646 1.011-1.028v-2.916h-1.652c-1.977 0-2.966 0.888-2.966 2.663 0 0.517 0.174 0.938 0.523 1.264 0.348 0.315 0.792 0.472 1.331 0.472z"></path>
        </symbol>
        <symbol id="icon-logo" viewBox="0 0 84 32">
            <path fill="#fb7c2f" style="fill: var(--color1, #fb7c2f)" d="M12.444 4.444h15.111c3.927 0 7.111 3.184 7.111 7.111v8.889c0 3.927-3.184 7.111-7.111 7.111h-15.111c-3.927 0-7.111-3.184-7.111-7.111v-8.889c0-3.927 3.184-7.111 7.111-7.111z"></path>
            <path fill="#fb7c2f" style="fill: var(--color1, #fb7c2f)" opacity="0.2" d="M7.111 0h15.111c3.927 0 7.111 3.184 7.111 7.111v8.889c0 3.927-3.184 7.111-7.111 7.111h-15.111c-3.927 0-7.111-3.184-7.111-7.111v-8.889c0-3.927 3.184-7.111 7.111-7.111z"></path>
            <path fill="#000" style="fill: var(--color2, #000)" d="M20.563 18.285l1.143-1.254 2.46 4.301h3.301l-3.904-6.444 3.904-5.11h-3.444l-2.492 3.627-0.968 1.468v-5.095h-2.785v11.554h2.785v-3.047zM33.522 20.562c0.074 0.339 0.159 0.595 0.254 0.77h2.674v-0.135c-0.233-0.418-0.354-1.021-0.365-1.809v-3.801c-0.016-0.931-0.341-1.664-0.976-2.198s-1.5-0.802-2.595-0.802c-1.095 0-1.997 0.259-2.706 0.778-0.704 0.518-1.055 1.193-1.055 2.023h2.674c0-0.624 0.317-0.936 0.952-0.936 0.682 0 1.024 0.394 1.024 1.182v0.452h-0.825c-1.312 0-2.312 0.238-3 0.714s-1.032 1.18-1.032 2.111c0 0.741 0.283 1.357 0.849 1.849 0.566 0.487 1.254 0.73 2.063 0.73 0.883 0 1.571-0.309 2.063-0.928zM32.927 19.372c-0.217 0.143-0.492 0.214-0.825 0.214-0.254 0-0.463-0.074-0.627-0.222-0.164-0.153-0.246-0.352-0.246-0.595 0-0.836 0.466-1.254 1.397-1.254h0.778v1.373c-0.095 0.18-0.254 0.341-0.476 0.484zM45.544 17.102c0 1.333-0.302 2.399-0.905 3.198-0.598 0.794-1.407 1.19-2.428 1.19-0.788 0-1.436-0.288-1.944-0.865v4.007h-2.674v-11.887h2.5l0.079 0.794c0.513-0.635 1.188-0.952 2.023-0.952 1.058 0 1.881 0.391 2.468 1.174 0.587 0.778 0.881 1.849 0.881 3.214v0.127zM42.87 16.936c0-1.524-0.444-2.285-1.333-2.285-0.635 0-1.058 0.227-1.27 0.682v3.38c0.233 0.476 0.661 0.714 1.285 0.714 0.852 0 1.291-0.735 1.317-2.206v-0.286zM50.44 21.491c0.963 0 1.727-0.362 2.293-1.087l0.079 0.928h2.508v-8.586h-2.69v6.023c-0.259 0.439-0.696 0.659-1.309 0.659-0.714 0-1.071-0.368-1.071-1.103v-5.579h-2.674v5.563c0 1.026 0.241 1.815 0.722 2.365 0.487 0.545 1.201 0.817 2.143 0.817zM61.288 18.919c0-0.227-0.119-0.41-0.357-0.548s-0.69-0.28-1.357-0.428c-0.667-0.148-1.217-0.341-1.651-0.579-0.434-0.243-0.764-0.537-0.992-0.881s-0.341-0.738-0.341-1.182c0-0.788 0.325-1.436 0.976-1.944 0.546-0.431 1.234-0.681 2.064-0.75v-1.95h1.275v1.975c0.776 0.094 1.425 0.336 1.946 0.725 0.688 0.513 1.032 1.188 1.032 2.024h-2.682c0-0.688-0.362-1.032-1.087-1.032-0.28 0-0.516 0.079-0.706 0.238-0.19 0.153-0.286 0.347-0.286 0.579 0 0.238 0.116 0.431 0.349 0.579s0.603 0.27 1.111 0.365c0.513 0.095 0.963 0.209 1.349 0.341 1.291 0.444 1.936 1.241 1.936 2.389 0 0.783-0.349 1.42-1.047 1.912-0.521 0.37-1.159 0.601-1.914 0.693v1.958h-1.275v-1.933c-0.54-0.047-1.032-0.172-1.477-0.376-0.577-0.265-1.026-0.624-1.349-1.079s-0.484-0.934-0.484-1.436h2.5c0.011 0.397 0.143 0.688 0.397 0.873 0.254 0.18 0.579 0.27 0.976 0.27 0.365 0 0.638-0.074 0.817-0.222 0.185-0.148 0.278-0.341 0.278-0.579zM69.128 12.746v-2.135h-2.674v2.135h-1.095v1.857h1.095v4.261c0 0.883 0.219 1.542 0.659 1.976s1.119 0.651 2.039 0.651c0.524 0 1.026-0.077 1.508-0.23v-1.912c-0.18 0.032-0.402 0.048-0.667 0.048-0.344 0-0.574-0.064-0.69-0.191s-0.175-0.352-0.175-0.674v-3.928h1.412v-1.857h-1.412zM77.326 21.332c-0.095-0.175-0.18-0.431-0.254-0.77-0.492 0.619-1.18 0.928-2.063 0.928-0.809 0-1.497-0.243-2.063-0.73-0.566-0.492-0.849-1.108-0.849-1.849 0-0.931 0.344-1.635 1.032-2.111s1.688-0.714 3-0.714h0.825v-0.452c0-0.788-0.341-1.182-1.024-1.182-0.635 0-0.952 0.312-0.952 0.936h-2.674c0-0.831 0.352-1.505 1.055-2.023 0.709-0.518 1.611-0.778 2.706-0.778s1.96 0.267 2.595 0.802c0.635 0.534 0.96 1.267 0.976 2.198v3.801c0.011 0.788 0.132 1.391 0.365 1.809v0.135h-2.674zM75.651 19.586c0.333 0 0.608-0.071 0.825-0.214 0.222-0.143 0.381-0.304 0.476-0.484v-1.373h-0.778c-0.931 0-1.397 0.418-1.397 1.254 0 0.243 0.082 0.442 0.246 0.595 0.164 0.148 0.373 0.222 0.627 0.222z"></path>
        </symbol>
        <symbol id="icon-cole-hero" viewBox="0 0 18 32">
            <path fill="#dfe2eb" style="fill: var(--color1, #dfe2eb)" d="M14.866 0c1.429-0 2.831 0.309 4.196 0.927 1.574 0.713 3.086 1.589 4.494 2.602 0.062 0.044 0.12 0.091 0.174 0.141l1.514-1.219c0.105-0.085 0.252-0.094 0.367-0.024 0.052 0.032 1.298 0.802 2.352 2.033 1.058 1.235 1.522 2.448 1.541 2.499 0.042 0.111 0.019 0.236-0.060 0.325l-0.931 1.053c-0.023 0.026-0.049 0.047-0.077 0.063 0.476 0.926 1.114 2.65 1.345 5.488 0.204 2.513-0.114 4.574-0.945 6.125-0.044 0.083-0.11 0.219-0.181 0.366-0.122 0.251-0.248 0.511-0.334 0.653-0.085 0.14-0.179 0.301-0.282 0.48-0.801 1.387-2.292 3.967-5.698 5.934-2.887 1.667-4.323 1.84-5.591 1.993-0.754 0.091-1.405 0.17-2.281 0.562-2.229 0.998-2.675 1.814-2.679 1.823-0.043 0.081-0.119 0.143-0.208 0.165s-0.184 0.008-0.26-0.044c-0.234-0.162-1.399-1.009-1.412-1.828-0.006-0.397 0.131-0.669 0.232-0.867 0.103-0.203 0.099-0.208 0.056-0.266-0.047-0.062-0.132-0.096-0.267-0.147-0.322-0.121-0.808-0.304-0.831-1.244-0.018-0.749 0.377-1.167 0.698-1.47-0.635-0.317-2.264-1.183-3.557-2.316-0.835-0.732-1.489-1.588-1.892-2.177-0.307-0.449-0.492-0.746-0.597-0.949-0.412 0.223-0.692 0.319-0.909 0.394-0.255 0.087-0.396 0.136-0.617 0.341-0.735 0.682-1.935 0.146-2.080 0.045-0.082-0.057-0.135-0.146-0.146-0.245-0.020-0.183 0.084-0.297 0.275-0.503 0.316-0.342 0.974-1.055 1.29-2.264 0.283-1.084 0.224-2.343 0.172-3.453-0.033-0.701-0.064-1.364-0.001-1.887 0.206-1.712 0.636-5.274 3.261-8.201 1.255-1.4 2.831-2.623 4.461-3.481 0.028-0.022 0.060-0.038 0.093-0.049 0.402-0.208 0.807-0.393 1.211-0.553 1.385-0.549 2.755-0.824 4.102-0.824zM16.622 0.82c-2.388-0.448-4.714 0.089-6.74 1.114-0.14 0.286-0.547 1.244-0.517 2.693 0.036 1.707 0.331 2.246 0.334 2.251 0.086 0.151 0.037 0.347-0.112 0.436s-0.341 0.046-0.433-0.101c-0.040-0.063-0.389-0.672-0.428-2.572-0.020-0.943 0.128-1.696 0.288-2.227-1.376 0.823-2.583 1.856-3.538 2.921-0.496 0.553-0.909 1.131-1.255 1.716 0.117 0.286 0.38 1.113 0.237 2.502-0.167 1.617-0.228 2.5-0.228 2.508-0.012 0.176-0.167 0.308-0.341 0.297-0.176-0.012-0.309-0.165-0.297-0.341 0.001-0.009 0.063-0.9 0.23-2.53 0.073-0.712 0.029-1.253-0.038-1.626-1.022 2.092-1.271 4.156-1.411 5.324-0.057 0.47-0.027 1.107 0.005 1.78 0.054 1.157 0.116 2.468-0.192 3.645-0.329 1.259-0.977 2.031-1.352 2.442 0.298 0.078 0.718 0.119 0.96-0.107 0.32-0.297 0.563-0.381 0.844-0.477 0.266-0.091 0.596-0.204 1.172-0.56 0.531-0.329 0.544-0.759 0.52-1.435-0.016-0.447-0.033-0.954 0.228-1.402 0.456-0.783 1.012-0.603 1.379-0.485 0.199 0.064 0.372 0.12 0.552 0.078 0.017-0.138-0.101-0.526-0.189-0.814-0.202-0.662-0.478-1.569-0.328-2.484 0.084-0.511 0.237-0.824 0.482-0.984 0.286-0.187 0.591-0.109 0.836-0.046 0.322 0.083 0.384 0.075 0.477-0.059 0.354-0.512 0.452-0.98 0.589-1.627 0.058-0.273 0.123-0.582 0.216-0.93 0.145-0.543 0.424-0.924 0.829-1.13 0.615-0.313 1.502-0.227 2.788 0.271 1.085 0.42 2.072 0.517 2.709 0.524 0.003 0 0.007 0 0.010 0 0.278 0 0.529-0.13 0.804-0.333 1.845-1.771 3.878-2.77 5.88-2.861 0.387-0.017 0.794-0.003 1.207 0.035 0.45-0.113 0.721-0.461 0.832-0.794 0.138-0.414 0.092-0.995-0.448-1.385-1.374-0.989-2.849-1.844-4.384-2.539-0.464-0.21-0.929-0.378-1.392-0.507-0.204 0.154-1.149 0.904-2.020 2.198 0.067 0.153 0.461 1.076 0.508 1.895 0.024 0.408 0.037 0.933-0.031 1.115l-0.598-0.225c0 0-0.004 0.007-0.008 0.026 0.002-0.007 0.040-0.188-0-0.879-0.025-0.429-0.169-0.913-0.29-1.252-0.972 1.686-1.115 2.287-1.116 2.293-0.039 0.171-0.208 0.28-0.379 0.244s-0.281-0.203-0.247-0.375c0.014-0.070 0.169-0.734 1.267-2.62 0.745-1.279 1.611-2.15 2.128-2.604zM28.833 7.012c-0.163-0.366-0.599-1.252-1.355-2.134s-1.637-1.525-2.014-1.781l-1.196 0.963c0.438 0.337 1.141 0.884 1.59 1.27 1.186 1.020 2.041 2.194 2.076 2.244 0.015 0.020 0.027 0.042 0.036 0.064 0.037 0.049 0.083 0.114 0.137 0.195l0.725-0.821zM26.706 7.077c-0.337-0.382-0.774-0.84-1.265-1.262-0.3-0.258-0.728-0.599-1.107-0.895 0.014 0.235-0.017 0.477-0.097 0.716-0.093 0.282-0.244 0.526-0.436 0.723 1.101 0.185 2.16 0.482 2.904 0.718zM27.446 8.005c-0.438-0.16-2.614-0.928-4.616-1.13-0.125 0.023-0.255 0.033-0.387 0.031-0.618-0.011-1.208 0.033-1.754 0.132-2.004 0.367-3.311 1.465-4.091 2.122-0.137 0.116-0.261 0.219-0.371 0.305-0.035 0.027-0.070 0.054-0.105 0.081-0.552 0.534-1.088 1.141-1.601 1.818-2.028 2.677-1.902 3.957-1.842 4.572l0.009 0.089c0.014 0.159 0.103 0.447 0.198 0.752 0.245 0.793 0.582 1.878 0.264 2.679-0.293 0.739-1.040 0.806-1.761 0.87-0.518 0.046-1.053 0.094-1.47 0.371-0.894 0.594-0.444 2.122-0.036 2.931 0.161 0.32 0.359 0.56 0.534 0.772 0.3 0.363 0.61 0.739 0.468 1.306-0.091 0.362-0.341 0.596-0.583 0.822-0.307 0.287-0.573 0.535-0.56 1.048 0.012 0.508 0.156 0.562 0.416 0.66 0.175 0.066 0.392 0.147 0.553 0.362 0.286 0.381 0.123 0.704 0.003 0.94-0.086 0.169-0.167 0.329-0.163 0.567 0.004 0.3 0.468 0.786 0.885 1.123 0.325-0.381 1.084-1.056 2.774-1.813 0.965-0.432 1.694-0.52 2.465-0.613 1.207-0.146 2.574-0.311 5.348-1.912 3.258-1.881 4.639-4.271 5.464-5.7 0.106-0.184 0.202-0.349 0.29-0.493 0.070-0.115 0.2-0.383 0.304-0.598 0.076-0.156 0.146-0.3 0.193-0.389 0.715-1.335 1.019-3.101 0.905-5.254-0.479 1.613-1.456 4.012-3.39 6.241-3.242 3.737-9.542 5.776-9.809 5.861-0.169 0.053-0.348-0.040-0.401-0.208s0.039-0.348 0.207-0.402c0.061-0.019 5.787-1.874 9.036-5.149-0.63-0.208-2.091-0.623-3.108-0.391-0.418 0.096-0.779 0.186-1.098 0.266-0.789 0.198-1.359 0.342-2.030 0.368-0.004 0-0.009 0-0.013 0-0.171 0-0.313-0.135-0.319-0.308-0.007-0.177 0.13-0.326 0.307-0.332 0.576-0.023 1.095-0.147 1.792-0.322l-0.623-0.598c-0.127-0.123-0.132-0.325-0.009-0.453s0.325-0.132 0.452-0.009l0.914 0.878c0.153-0.037 0.314-0.075 0.485-0.114 1.391-0.317 3.349 0.363 3.727 0.502 0.003-0.003 0.005-0.006 0.008-0.009 1.038-1.196 1.791-2.455 2.333-3.604-0.852 0.464-2.244 1.063-3.129 0.621-0.588-0.294-1.036-0.823-1.469-1.334-0.473-0.559-0.92-1.087-1.506-1.285-0.167-0.057-0.257-0.238-0.2-0.406s0.238-0.257 0.405-0.2c0.754 0.255 1.28 0.877 1.789 1.478 0.185 0.218 0.365 0.431 0.551 0.621 0.134-0.416 0.358-1.202 0.365-1.844 0.010-0.914-0.446-2.209-0.45-2.222-0.059-0.167 0.028-0.35 0.194-0.409s0.349 0.027 0.408 0.194c0.020 0.057 0.499 1.414 0.487 2.444-0.010 0.904-0.377 1.994-0.479 2.282 0.062 0.041 0.126 0.077 0.191 0.11 0.798 0.398 2.63-0.623 3.209-1.013 0.022-0.015 0.045-0.026 0.069-0.035 0.722-1.822 0.897-3.172 0.9-3.196 0-0.003 0.001-0.006 0.001-0.009-0.441-2.897-1.322-4.193-1.53-4.464zM14.787 10.025c-0.691-0.017-1.712-0.133-2.829-0.565-1.075-0.417-1.838-0.517-2.268-0.298-0.24 0.122-0.403 0.359-0.501 0.724-0.089 0.331-0.149 0.619-0.208 0.897-0.141 0.666-0.262 1.241-0.689 1.859-0.36 0.522-0.862 0.392-1.162 0.315-0.13-0.033-0.277-0.071-0.327-0.038-0.021 0.013-0.127 0.103-0.201 0.551-0.125 0.768 0.115 1.558 0.309 2.193 0.179 0.589 0.309 1.015 0.132 1.333-0.055 0.098-0.164 0.227-0.375 0.282-0.368 0.097-0.678-0.003-0.928-0.084-0.35-0.113-0.433-0.14-0.63 0.198-0.168 0.288-0.155 0.662-0.141 1.057 0.021 0.609 0.047 1.356-0.663 1.893 0.232 0.421 1.077 1.857 2.359 2.982 1.349 1.184 3.14 2.088 3.574 2.3 0.011-0.024 0.019-0.048 0.025-0.073 0.058-0.233-0.036-0.372-0.341-0.743-0.187-0.226-0.419-0.508-0.612-0.892-0.623-1.239-0.931-2.965 0.254-3.752 0.553-0.367 1.198-0.424 1.767-0.475 0.687-0.061 1.083-0.113 1.224-0.469 0.235-0.591-0.063-1.552-0.28-2.254-0.109-0.353-0.204-0.658-0.224-0.884l-0.008-0.084c-0.069-0.696-0.211-2.145 1.968-5.022 0.253-0.334 0.512-0.651 0.775-0.952z"></path>
        </symbol>
        <symbol id="icon-cole-main" viewBox="0 0 30 32">
            <path fill="#dfe2eb" style="fill: var(--color1, #dfe2eb)" d="M14.976 32c-1.429 0-2.831-0.309-4.196-0.927-1.574-0.713-3.086-1.589-4.494-2.602-0.062-0.044-0.12-0.091-0.174-0.141l-1.514 1.219c-0.105 0.085-0.252 0.094-0.367 0.024-0.052-0.032-1.298-0.802-2.352-2.033-1.058-1.235-1.522-2.448-1.541-2.499-0.042-0.111-0.019-0.236 0.060-0.325l0.931-1.053c0.023-0.026 0.049-0.047 0.077-0.063-0.476-0.926-1.114-2.65-1.345-5.488-0.204-2.513 0.114-4.574 0.945-6.125 0.044-0.083 0.11-0.219 0.181-0.366 0.122-0.251 0.248-0.511 0.334-0.653 0.085-0.14 0.179-0.301 0.282-0.48 0.801-1.387 2.292-3.967 5.698-5.934 2.887-1.667 4.323-1.84 5.591-1.993 0.754-0.091 1.405-0.17 2.281-0.562 2.229-0.998 2.675-1.815 2.679-1.823 0.043-0.081 0.119-0.143 0.208-0.165s0.184-0.008 0.26 0.044c0.234 0.162 1.399 1.009 1.412 1.828 0.006 0.397-0.131 0.669-0.232 0.867-0.103 0.203-0.099 0.208-0.056 0.266 0.047 0.062 0.132 0.096 0.267 0.147 0.322 0.121 0.808 0.304 0.831 1.244 0.018 0.749-0.377 1.167-0.698 1.47 0.635 0.317 2.264 1.183 3.557 2.316 0.835 0.732 1.489 1.588 1.892 2.177 0.307 0.449 0.492 0.746 0.597 0.949 0.412-0.223 0.692-0.319 0.909-0.394 0.255-0.087 0.396-0.136 0.617-0.341 0.735-0.682 1.935-0.146 2.080-0.045 0.082 0.057 0.135 0.146 0.146 0.245 0.020 0.183-0.084 0.297-0.275 0.503-0.316 0.342-0.974 1.055-1.29 2.264-0.283 1.084-0.224 2.343-0.172 3.453 0.033 0.701 0.064 1.364 0.001 1.887-0.206 1.712-0.636 5.274-3.261 8.201-1.255 1.4-2.831 2.623-4.461 3.481-0.028 0.022-0.060 0.038-0.093 0.049-0.402 0.208-0.807 0.393-1.211 0.553-1.385 0.549-2.755 0.824-4.102 0.824zM13.221 31.18c2.388 0.448 4.714-0.089 6.74-1.114 0.14-0.286 0.547-1.244 0.517-2.693-0.035-1.707-0.331-2.246-0.334-2.251-0.086-0.151-0.037-0.347 0.112-0.436s0.341-0.046 0.433 0.101c0.040 0.063 0.389 0.672 0.428 2.572 0.020 0.943-0.128 1.696-0.288 2.227 1.376-0.823 2.583-1.856 3.538-2.921 0.496-0.553 0.909-1.131 1.255-1.716-0.117-0.286-0.38-1.113-0.237-2.502 0.167-1.617 0.228-2.5 0.228-2.508 0.012-0.176 0.167-0.308 0.341-0.297 0.176 0.012 0.309 0.165 0.297 0.341-0.001 0.009-0.063 0.9-0.23 2.53-0.073 0.712-0.029 1.253 0.038 1.626 1.022-2.092 1.271-4.156 1.411-5.324 0.057-0.47 0.027-1.107-0.005-1.78-0.054-1.157-0.116-2.468 0.192-3.645 0.329-1.259 0.977-2.031 1.352-2.442-0.298-0.078-0.718-0.119-0.96 0.107-0.32 0.297-0.563 0.38-0.844 0.477-0.266 0.091-0.596 0.204-1.172 0.56-0.531 0.329-0.544 0.759-0.52 1.435 0.016 0.447 0.033 0.954-0.228 1.402-0.456 0.783-1.012 0.603-1.379 0.485-0.199-0.064-0.372-0.12-0.552-0.078-0.017 0.138 0.101 0.526 0.189 0.814 0.202 0.662 0.478 1.569 0.328 2.484-0.084 0.511-0.237 0.824-0.482 0.984-0.286 0.187-0.591 0.109-0.836 0.046-0.322-0.083-0.384-0.075-0.477 0.059-0.354 0.512-0.452 0.98-0.589 1.627-0.058 0.273-0.123 0.582-0.216 0.93-0.145 0.543-0.424 0.924-0.829 1.13-0.615 0.313-1.502 0.227-2.788-0.271-1.085-0.42-2.072-0.517-2.709-0.524-0.003 0-0.007 0-0.010 0-0.278 0-0.529 0.13-0.804 0.333-1.845 1.771-3.878 2.77-5.88 2.861-0.387 0.017-0.795 0.003-1.207-0.035-0.45 0.113-0.721 0.461-0.832 0.794-0.138 0.414-0.092 0.995 0.449 1.385 1.374 0.989 2.849 1.844 4.384 2.539 0.464 0.21 0.929 0.378 1.392 0.507 0.204-0.154 1.149-0.904 2.020-2.198-0.067-0.153-0.461-1.076-0.508-1.895-0.024-0.408-0.037-0.933 0.031-1.115l0.598 0.225c0 0 0.004-0.007 0.008-0.026-0.002 0.007-0.040 0.188 0 0.879 0.025 0.429 0.169 0.913 0.29 1.252 0.972-1.686 1.115-2.287 1.116-2.293 0.038-0.171 0.208-0.28 0.379-0.244s0.281 0.203 0.247 0.375c-0.014 0.070-0.169 0.734-1.267 2.62-0.745 1.279-1.611 2.15-2.128 2.604zM1.009 24.988c0.163 0.366 0.599 1.252 1.355 2.134s1.637 1.525 2.014 1.781l1.196-0.963c-0.438-0.337-1.141-0.884-1.59-1.27-1.186-1.020-2.041-2.194-2.076-2.244-0.015-0.020-0.027-0.042-0.036-0.064-0.037-0.049-0.083-0.114-0.137-0.195l-0.725 0.821zM3.136 24.923c0.337 0.382 0.774 0.84 1.265 1.262 0.3 0.258 0.728 0.599 1.107 0.895-0.014-0.235 0.017-0.477 0.097-0.716 0.093-0.282 0.244-0.526 0.436-0.724-1.101-0.185-2.16-0.482-2.904-0.718zM2.397 23.995c0.438 0.16 2.614 0.928 4.616 1.13 0.125-0.023 0.255-0.033 0.387-0.031 0.618 0.011 1.208-0.033 1.754-0.132 2.004-0.367 3.31-1.465 4.091-2.122 0.137-0.116 0.261-0.219 0.371-0.305 0.035-0.027 0.070-0.054 0.105-0.081 0.552-0.534 1.088-1.141 1.601-1.818 2.028-2.677 1.902-3.957 1.842-4.572l-0.009-0.089c-0.014-0.159-0.103-0.447-0.198-0.752-0.245-0.793-0.582-1.878-0.264-2.679 0.293-0.739 1.040-0.806 1.761-0.87 0.518-0.046 1.053-0.094 1.47-0.371 0.894-0.594 0.444-2.122 0.036-2.931-0.161-0.32-0.359-0.56-0.534-0.772-0.3-0.363-0.61-0.739-0.468-1.306 0.091-0.362 0.341-0.596 0.583-0.822 0.307-0.287 0.573-0.535 0.56-1.048-0.012-0.508-0.156-0.562-0.416-0.66-0.175-0.066-0.392-0.147-0.553-0.362-0.286-0.381-0.123-0.704-0.003-0.94 0.086-0.169 0.167-0.329 0.163-0.567-0.004-0.3-0.468-0.786-0.885-1.123-0.325 0.381-1.084 1.056-2.774 1.813-0.965 0.432-1.694 0.52-2.465 0.613-1.207 0.146-2.574 0.311-5.348 1.912-3.258 1.881-4.639 4.271-5.464 5.7-0.106 0.184-0.202 0.349-0.29 0.493-0.071 0.115-0.2 0.383-0.304 0.598-0.076 0.156-0.146 0.3-0.193 0.389-0.715 1.336-1.019 3.101-0.905 5.254 0.479-1.613 1.456-4.012 3.39-6.241 3.242-3.737 9.542-5.776 9.809-5.861 0.169-0.053 0.348 0.040 0.401 0.208s-0.039 0.348-0.207 0.402c-0.061 0.019-5.787 1.874-9.036 5.149 0.63 0.208 2.091 0.623 3.108 0.391 0.418-0.096 0.779-0.186 1.098-0.266 0.789-0.198 1.359-0.342 2.030-0.368 0.004-0 0.009-0 0.013-0 0.171 0 0.313 0.135 0.319 0.308 0.007 0.177-0.13 0.325-0.307 0.332-0.576 0.023-1.095 0.147-1.792 0.322l0.623 0.598c0.127 0.123 0.132 0.325 0.009 0.453s-0.325 0.132-0.452 0.009l-0.914-0.878c-0.153 0.037-0.314 0.075-0.485 0.114-1.391 0.317-3.349-0.363-3.727-0.502-0.003 0.003-0.005 0.006-0.008 0.009-1.038 1.196-1.791 2.455-2.333 3.604 0.852-0.464 2.244-1.063 3.129-0.621 0.588 0.294 1.036 0.822 1.469 1.334 0.473 0.559 0.92 1.087 1.506 1.285 0.167 0.057 0.257 0.238 0.2 0.406s-0.238 0.257-0.405 0.201c-0.754-0.255-1.28-0.877-1.789-1.478-0.185-0.218-0.365-0.431-0.551-0.621-0.134 0.416-0.358 1.202-0.365 1.844-0.010 0.914 0.446 2.209 0.45 2.222 0.059 0.167-0.028 0.35-0.194 0.409s-0.349-0.027-0.408-0.194c-0.020-0.057-0.499-1.414-0.487-2.444 0.010-0.904 0.377-1.994 0.479-2.282-0.062-0.040-0.126-0.077-0.191-0.11-0.798-0.398-2.63 0.623-3.209 1.013-0.022 0.015-0.045 0.026-0.069 0.035-0.722 1.822-0.897 3.172-0.9 3.196-0 0.003-0.001 0.006-0.001 0.009 0.441 2.897 1.322 4.193 1.53 4.464zM15.055 21.975c0.691 0.017 1.712 0.133 2.829 0.565 1.075 0.417 1.838 0.517 2.268 0.298 0.24-0.122 0.403-0.359 0.501-0.724 0.089-0.331 0.149-0.619 0.208-0.897 0.141-0.666 0.262-1.241 0.689-1.859 0.36-0.522 0.862-0.392 1.162-0.315 0.13 0.033 0.277 0.071 0.327 0.038 0.021-0.013 0.127-0.103 0.201-0.551 0.125-0.768-0.115-1.558-0.309-2.193-0.18-0.589-0.309-1.015-0.132-1.333 0.055-0.098 0.164-0.227 0.375-0.282 0.368-0.097 0.678 0.003 0.928 0.084 0.35 0.113 0.433 0.14 0.63-0.198 0.168-0.288 0.155-0.662 0.141-1.057-0.021-0.609-0.047-1.356 0.663-1.893-0.232-0.421-1.077-1.857-2.359-2.982-1.349-1.184-3.14-2.088-3.574-2.3-0.011 0.024-0.019 0.048-0.025 0.073-0.058 0.233 0.035 0.372 0.341 0.743 0.187 0.226 0.419 0.508 0.612 0.892 0.623 1.239 0.931 2.965-0.254 3.752-0.553 0.367-1.198 0.424-1.767 0.475-0.687 0.061-1.083 0.113-1.224 0.469-0.234 0.591 0.063 1.552 0.28 2.254 0.109 0.353 0.204 0.658 0.224 0.884l0.008 0.084c0.069 0.696 0.211 2.145-1.968 5.022-0.253 0.334-0.512 0.651-0.775 0.952z"></path>
        </symbol>

        <symbol id="icon-delete" viewBox="0 0 32 32">
            <path fill="#52555f" style="fill: var(--color1, #52555f)" d="M28.992 7.152l-0.706-2.117c-0.269-0.791-1.005-1.349-1.871-1.349-0 0-0.001 0-0.001 0h-5.938v-1.932c-0.001-0.968-0.785-1.752-1.753-1.753h-5.438c-0.967 0.002-1.75 0.786-1.751 1.753v1.933h-5.938c-0.85 0-1.602 0.542-1.872 1.349l-0.706 2.117c-0.051 0.149-0.080 0.32-0.080 0.498 0 0.876 0.708 1.586 1.584 1.589h0.738l1.627 20.101c0.121 1.492 1.387 2.66 2.88 2.66h12.805c1.493 0 2.761-1.168 2.88-2.66l1.627-20.101h0.409c0.875-0.003 1.584-0.713 1.584-1.589 0-0.178-0.029-0.349-0.083-0.509l0.003 0.011zM13.41 1.876h5.191v1.81h-5.191v-1.81zM23.584 29.189c-0.046 0.524-0.482 0.932-1.013 0.935h-12.8c-0.532-0.003-0.967-0.411-1.013-0.931l-0-0.004-1.616-19.95h18.057l-1.614 19.95zM4.924 7.365l0.58-1.737c0.013-0.039 0.049-0.067 0.092-0.068h20.818c0.043 0 0.080 0.027 0.092 0.068l0.58 1.737h-22.162z"></path>
            <path fill="#52555f" style="fill: var(--color1, #52555f)" d="M20.596 29.122l0.048 0.002c0 0 0.001 0 0.001 0 0.501 0 0.909-0.393 0.936-0.887l0-0.002 0.88-16.9c0.001-0.015 0.001-0.032 0.001-0.049 0-0.518-0.42-0.938-0.938-0.938-0.501 0-0.91 0.393-0.937 0.887l-0 0.002-0.88 16.9c-0.001 0.015-0.001 0.032-0.001 0.049 0 0.501 0.393 0.91 0.888 0.936l0.002 0zM10.473 28.236c0.028 0.495 0.436 0.887 0.936 0.887 0.518 0 0.937-0.42 0.937-0.937 0-0.018-0.001-0.036-0.001-0.053l0 0.002-0.921-16.9c-0.028-0.496-0.437-0.888-0.937-0.888-0.518 0-0.938 0.42-0.938 0.938 0 0.018 0.001 0.036 0.001 0.053l-0-0.002 0.923 16.9zM16.016 29.124c0.517 0 0.937-0.419 0.937-0.937v0-16.901c0-0.517-0.419-0.937-0.937-0.937s-0.937 0.419-0.937 0.937v0 16.901c0 0.516 0.42 0.937 0.937 0.937z"></path>
        </symbol>

        <symbol id="icon-google" viewBox="0 0 32 32">
<path fill="#2196f3" style="fill: var(--color1, #2196f3)" d="M31.394 13.038c0.139 0 0.251 0.115 0.251 0.258v2.704c0 1.012-0.092 2.002-0.268 2.962-1.362 7.457-7.777 13.092-15.466 13.038-8.628-0.061-15.532-7.2-15.513-16.036 0.019-8.82 7.007-15.964 15.623-15.964 4.221 0 8.052 1.715 10.864 4.501 0.102 0.101 0.104 0.266 0.004 0.369l-3.736 3.826c-0.096 0.098-0.252 0.101-0.35 0.005-1.765-1.721-4.153-2.777-6.783-2.777-5.43 0-9.802 4.446-9.839 10.007-0.037 5.597 4.382 10.146 9.839 10.146 4.427 0 8.172-2.995 9.407-7.115h-9.155c-0.139 0-0.252-0.115-0.252-0.258v-5.408c0-0.142 0.113-0.258 0.252-0.258l15.121 0z"></path>
<path fill="#1e88e5" style="fill: var(--color2, #1e88e5)" d="M31.393 13.038h-1.886c0.139 0 0.251 0.115 0.251 0.258v2.704c0 1.012-0.092 2.002-0.268 2.962-1.299 7.114-7.198 12.57-14.414 13.009 0.276 0.017 0.554 0.026 0.834 0.028 7.689 0.054 14.104-5.581 15.466-13.038 0.176-0.96 0.268-1.95 0.268-2.962v-2.704c0-0.142-0.113-0.258-0.252-0.258z"></path>
<path fill="#f44336" style="fill: var(--color3, #f44336)" d="M7.084 11.78l-4.745-3.511c2.662-4.931 7.792-8.269 13.682-8.269 4.222 0 8.052 1.715 10.864 4.501 0.102 0.101 0.104 0.266 0.004 0.369l-3.736 3.826c-0.096 0.098-0.251 0.101-0.35 0.005-1.765-1.721-4.153-2.777-6.783-2.777-3.963 0-7.379 2.399-8.937 5.857z"></path>
<path fill="#e53935" style="fill: var(--color4, #e53935)" d="M5.714 10.767l1.37 1.014c1.423-3.156 4.393-5.429 7.914-5.802 0.027-0.003 0.052-0.006 0.079-0.009-0.31-0.030-0.624-0.046-0.941-0.046-3.58 0-6.7 1.933-8.421 4.843z"></path>
<path fill="#e53935" style="fill: var(--color4, #e53935)" d="M24.999 4.501c0.102 0.101 0.104 0.266 0.004 0.369l-3.032 3.105c0.291 0.226 0.569 0.468 0.833 0.726 0.099 0.096 0.254 0.094 0.35-0.005l3.736-3.826c0.1-0.102 0.097-0.268-0.004-0.369-2.812-2.786-6.643-4.501-10.864-4.501-0.317 0-0.631 0.011-0.943 0.030 3.847 0.235 7.32 1.894 9.921 4.471z"></path>
<path fill="#4caf50" style="fill: var(--color5, #4caf50)" d="M27.482 26.874c-2.853 3.153-6.932 5.126-11.461 5.126-6.117 0-11.412-3.6-13.977-8.844l4.844-3.4c1.454 3.704 4.995 6.32 9.133 6.32 2.596 0 4.958-1.030 6.716-2.713l4.745 3.51z"></path>
<path fill="#43a047" style="fill: var(--color6, #43a047)" d="M6.888 19.756l-1.428 1.003c1.659 3.165 4.922 5.318 8.675 5.318 0.317 0 0.631-0.016 0.941-0.046-3.726-0.364-6.846-2.855-8.187-6.274z"></path>
<path fill="#43a047" style="fill: var(--color6, #43a047)" d="M16.021 32c4.529 0 8.608-1.974 11.461-5.126l-1.162-0.86c-2.679 3.414-6.698 5.679-11.239 5.957 0.311 0.019 0.625 0.029 0.941 0.029z"></path>
<path fill="#ffc107" style="fill: var(--color7, #ffc107)" d="M6.182 16c0 1.328 0.251 2.595 0.707 3.756l-4.844 3.4c-1.054-2.153-1.647-4.584-1.647-7.156 0-2.804 0.704-5.439 1.941-7.731l4.745 3.511c-0.579 1.283-0.902 2.713-0.902 4.22z"></path>
<path fill="#ffb300" style="fill: var(--color8, #ffb300)" d="M5.46 20.759l1.428-1.003c-0.456-1.161-0.707-2.429-0.707-3.756 0-1.507 0.323-2.937 0.902-4.22l-1.37-1.014c-0.889 1.504-1.406 3.269-1.418 5.164-0.012 1.747 0.411 3.392 1.164 4.829z"></path>
</symbol>

    </defs>
</svg>
